<mxfile host="Electron" agent="Mozilla/5.0 (Windows NT 10.0; Win64; x64) AppleWebKit/537.36 (KHTML, like Gecko) draw.io/26.1.1 Chrome/132.0.6834.210 Electron/34.3.3 Safari/537.36" version="26.1.1">
  <diagram id="C5RBs43oDa-KdzZeNtuy" name="Page-1">
    <mxGraphModel dx="1050" dy="621" grid="1" gridSize="10" guides="1" tooltips="1" connect="1" arrows="1" fold="1" page="1" pageScale="1" pageWidth="827" pageHeight="1169" math="0" shadow="0">
      <root>
        <mxCell id="WIyWlLk6GJQsqaUBKTNV-0" />
        <mxCell id="WIyWlLk6GJQsqaUBKTNV-1" parent="WIyWlLk6GJQsqaUBKTNV-0" />
        <mxCell id="qPNl4eomD1uCXlLY7Muh-1" value="dbinfo" style="swimlane;fontStyle=1;align=center;verticalAlign=top;childLayout=stackLayout;horizontal=1;startSize=26;horizontalStack=0;resizeParent=1;resizeParentMax=0;resizeLast=0;collapsible=1;marginBottom=0;whiteSpace=wrap;html=1;movable=1;resizable=1;rotatable=1;deletable=1;editable=1;locked=0;connectable=1;" vertex="1" parent="WIyWlLk6GJQsqaUBKTNV-1">
          <mxGeometry x="30" y="40" width="280" height="130" as="geometry">
            <mxRectangle x="40" y="40" width="100" height="30" as="alternateBounds" />
          </mxGeometry>
        </mxCell>
        <mxCell id="qPNl4eomD1uCXlLY7Muh-2" value="- TableSchema : tableschema[ ]" style="text;strokeColor=none;fillColor=none;align=left;verticalAlign=top;spacingLeft=4;spacingRight=4;overflow=hidden;rotatable=0;points=[[0,0.5],[1,0.5]];portConstraint=eastwest;whiteSpace=wrap;html=1;" vertex="1" parent="qPNl4eomD1uCXlLY7Muh-1">
          <mxGeometry y="26" width="280" height="26" as="geometry" />
        </mxCell>
        <mxCell id="qPNl4eomD1uCXlLY7Muh-3" value="" style="line;strokeWidth=1;fillColor=none;align=left;verticalAlign=middle;spacingTop=-1;spacingLeft=3;spacingRight=3;rotatable=0;labelPosition=right;points=[];portConstraint=eastwest;strokeColor=inherit;" vertex="1" parent="qPNl4eomD1uCXlLY7Muh-1">
          <mxGeometry y="52" width="280" height="8" as="geometry" />
        </mxCell>
        <mxCell id="qPNl4eomD1uCXlLY7Muh-4" value="+AddTable(table)&lt;div&gt;+DeletaTable(tablename)&lt;/div&gt;&lt;div&gt;+IsexistTable(tablename) : bool&lt;/div&gt;&lt;div&gt;+ShowallTable()&lt;/div&gt;" style="text;strokeColor=none;fillColor=none;align=left;verticalAlign=top;spacingLeft=4;spacingRight=4;overflow=hidden;rotatable=0;points=[[0,0.5],[1,0.5]];portConstraint=eastwest;whiteSpace=wrap;html=1;" vertex="1" parent="qPNl4eomD1uCXlLY7Muh-1">
          <mxGeometry y="60" width="280" height="70" as="geometry" />
        </mxCell>
        <mxCell id="qPNl4eomD1uCXlLY7Muh-17" value="Column" style="swimlane;fontStyle=1;align=center;verticalAlign=top;childLayout=stackLayout;horizontal=1;startSize=26;horizontalStack=0;resizeParent=1;resizeParentMax=0;resizeLast=0;collapsible=1;marginBottom=0;whiteSpace=wrap;html=1;" vertex="1" parent="WIyWlLk6GJQsqaUBKTNV-1">
          <mxGeometry x="30" y="210" width="280" height="140" as="geometry" />
        </mxCell>
        <mxCell id="qPNl4eomD1uCXlLY7Muh-18" value="- TableName : string&lt;div&gt;- DataType : string&lt;/div&gt;" style="text;strokeColor=none;fillColor=none;align=left;verticalAlign=top;spacingLeft=4;spacingRight=4;overflow=hidden;rotatable=0;points=[[0,0.5],[1,0.5]];portConstraint=eastwest;whiteSpace=wrap;html=1;" vertex="1" parent="qPNl4eomD1uCXlLY7Muh-17">
          <mxGeometry y="26" width="280" height="44" as="geometry" />
        </mxCell>
        <mxCell id="qPNl4eomD1uCXlLY7Muh-19" value="" style="line;strokeWidth=1;fillColor=none;align=left;verticalAlign=middle;spacingTop=-1;spacingLeft=3;spacingRight=3;rotatable=0;labelPosition=right;points=[];portConstraint=eastwest;strokeColor=inherit;" vertex="1" parent="qPNl4eomD1uCXlLY7Muh-17">
          <mxGeometry y="70" width="280" height="8" as="geometry" />
        </mxCell>
        <mxCell id="qPNl4eomD1uCXlLY7Muh-20" value="+column(TableName,DataType)&lt;div&gt;+gettablename() : string&lt;div&gt;+getdatatype() : string&lt;/div&gt;&lt;/div&gt;" style="text;strokeColor=none;fillColor=none;align=left;verticalAlign=top;spacingLeft=4;spacingRight=4;overflow=hidden;rotatable=0;points=[[0,0.5],[1,0.5]];portConstraint=eastwest;whiteSpace=wrap;html=1;" vertex="1" parent="qPNl4eomD1uCXlLY7Muh-17">
          <mxGeometry y="78" width="280" height="62" as="geometry" />
        </mxCell>
        <mxCell id="qPNl4eomD1uCXlLY7Muh-21" value="Record" style="swimlane;fontStyle=1;align=center;verticalAlign=top;childLayout=stackLayout;horizontal=1;startSize=26;horizontalStack=0;resizeParent=1;resizeParentMax=0;resizeLast=0;collapsible=1;marginBottom=0;whiteSpace=wrap;html=1;" vertex="1" parent="WIyWlLk6GJQsqaUBKTNV-1">
          <mxGeometry x="30" y="390" width="280" height="150" as="geometry" />
        </mxCell>
        <mxCell id="qPNl4eomD1uCXlLY7Muh-22" value="- record : MetaData&lt;div&gt;- data : string [ ]&lt;/div&gt;" style="text;strokeColor=none;fillColor=none;align=left;verticalAlign=top;spacingLeft=4;spacingRight=4;overflow=hidden;rotatable=0;points=[[0,0.5],[1,0.5]];portConstraint=eastwest;whiteSpace=wrap;html=1;" vertex="1" parent="qPNl4eomD1uCXlLY7Muh-21">
          <mxGeometry y="26" width="280" height="44" as="geometry" />
        </mxCell>
        <mxCell id="qPNl4eomD1uCXlLY7Muh-23" value="" style="line;strokeWidth=1;fillColor=none;align=left;verticalAlign=middle;spacingTop=-1;spacingLeft=3;spacingRight=3;rotatable=0;labelPosition=right;points=[];portConstraint=eastwest;strokeColor=inherit;" vertex="1" parent="qPNl4eomD1uCXlLY7Muh-21">
          <mxGeometry y="70" width="280" height="8" as="geometry" />
        </mxCell>
        <mxCell id="qPNl4eomD1uCXlLY7Muh-24" value="+getData()&lt;div&gt;+setData(&lt;span style=&quot;background-color: transparent; color: light-dark(rgb(0, 0, 0), rgb(255, 255, 255));&quot;&gt;data : string [ ])&lt;/span&gt;&lt;/div&gt;&lt;div&gt;&lt;span style=&quot;background-color: transparent; color: light-dark(rgb(0, 0, 0), rgb(255, 255, 255));&quot;&gt;+getDatarecord() : int&lt;/span&gt;&lt;/div&gt;&lt;div&gt;&lt;span style=&quot;background-color: transparent; color: light-dark(rgb(0, 0, 0), rgb(255, 255, 255));&quot;&gt;+ShowDatarecord()&lt;/span&gt;&lt;/div&gt;" style="text;strokeColor=none;fillColor=none;align=left;verticalAlign=top;spacingLeft=4;spacingRight=4;overflow=hidden;rotatable=0;points=[[0,0.5],[1,0.5]];portConstraint=eastwest;whiteSpace=wrap;html=1;" vertex="1" parent="qPNl4eomD1uCXlLY7Muh-21">
          <mxGeometry y="78" width="280" height="72" as="geometry" />
        </mxCell>
      </root>
    </mxGraphModel>
  </diagram>
</mxfile>
